# xmcd
#
# Track frame offsets:
#	150
#	18532
#	35924
#	69520
#	84027
#	101501
#	126699
#	149647
#	167151
#
# Disc length: 2481 seconds
#
# Revision: 2
# Processed by: cddbd v1.5.2PL0 Copyright (c) Steve Scherf et al.
# Submitted via: audiograbber 1.83.01
#
DISCID=8109af09
DTITLE=Bootprint - Retracing Our Steps
DYEAR=2005
DGENRE=Blues
TTITLE0=Feather City
TTITLE1=Because I
TTITLE2=Fear Not
TTITLE3=Joy Joy
TTITLE4=British Steel
TTITLE5=LALALALO
TTITLE6=She Really Cares
TTITLE7=Bad Drop
TTITLE8=Constant Pressure
EXTD=Recorded at: "Word Of Mouth Studio", Wellington, New Zealand\nEngineer: Jo
EXTD=Callwood (Email: josephcallwood@actrix.gen.nz]\nProduced By: P.Bleakley &
EXTD=K.Stokes (2005]\n\n-----------------------------\nBootprint Members:\n---
EXTD=-------------------------\nKen Stokes - Harp and Vocals\nChris Palmer - Gui
EXTD=tar and Vocals\nLisa Tomlins - Vocals\nBridget Kelly - Sax\nPatrick Bleakley
EXTD=Bass\nRiki Gooch - Drums\n\nCopyright 2005 Pigeon Bush Records
EXTT0=Length: 4:01\nStokes - Bleakley
EXTT1=Length: 3:47\nStokes - Bleakley
EXTT2=Length: 7:23\nStokes - Bleakley
EXTT3=Length: 3:09\nTraditional
EXTT4=Length: 3:48\nStokes
EXTT5=Length: 5:31\nStokes
EXTT6=Length: 5:01\nStokes - Bleakley
EXTT7=Length: 3:49\nStokes - Bleakley
EXTT8=Length: 4:12\nStokes - Bleakley
PLAYORDER=
